<svg width="101" height="98" viewBox="0 0 101 98" fill="none" xmlns="http://www.w3.org/2000/svg">
<path d="M95.5854 93.9499C94.457 93.9499 93.5638 93.9029 92.9056 93.8089C92.2474 93.6208 91.7772 93.1977 91.4951 92.5395C90.6489 91.129 89.6615 86.9447 88.5332 79.9866C87.4048 73.0284 86.3235 65.0359 85.2892 56.0091C83.0325 28.4586 81.293 14.4012 80.0706 13.8371C79.0363 16.0938 77.4378 20.3721 75.2751 26.672C73.1124 32.878 70.6206 41.0115 67.7998 51.0726C64.6968 61.886 62.3461 69.3613 60.7476 73.4986C59.1491 77.5418 57.7387 80.0336 56.5163 80.9739C55.764 81.6321 54.8237 82.2903 53.6954 82.9485C52.6611 83.5127 51.7678 83.7948 51.0156 83.7948C50.0753 83.7948 49.4641 83.7007 49.182 83.5127C48.8999 83.2306 48.5708 82.4783 48.1947 81.256C47.8186 79.8455 46.9253 75.4732 45.5149 68.1389C44.1044 60.7106 43.0231 54.0345 42.2709 48.1107L41.4246 42.1869C39.8261 29.9631 38.7448 23.146 38.1806 21.7355C36.394 23.334 34.7015 26.9071 33.103 32.4548C31.5045 37.9085 29.671 45.6659 27.6023 55.7271C25.6277 63.5315 23.23 76.2254 20.4091 93.8089C20.315 94.8432 19.6098 95.7835 18.2934 96.6297C16.977 97.476 15.8016 97.8991 14.7673 97.8991C13.2629 97.8991 12.4166 96.4417 12.2285 93.5268C12.1345 90.6119 11.4763 84.3119 10.2539 74.6269C9.12558 64.9419 8.09126 56.4323 7.15097 49.098C5.83456 38.6608 4.04801 28.9758 1.79131 20.043C1.1331 17.2221 0.804001 15.6236 0.804001 15.2475C0.804001 13.8371 1.4622 12.7087 2.77861 11.8625C4.18905 10.9222 5.69352 10.452 7.29201 10.452C8.04425 10.452 8.84349 13.3669 9.68976 19.1967C10.536 25.0265 11.4293 32.3608 12.3696 41.1996L12.7927 45.854C13.1688 48.957 13.592 52.201 14.0621 55.586C15.8487 69.9725 16.836 78.9993 17.024 82.6664C18.9046 71.759 21.0203 60.8046 23.371 49.8032L24.6404 43.5973C26.709 33.6302 28.9657 26.1079 31.4105 21.0303C33.8552 15.8587 37.0052 13.2729 40.8604 13.2729C42.0828 13.2729 43.4462 16.4699 44.9507 22.8639C46.4552 29.1638 47.6305 36.5451 48.4768 45.0077C49.135 51.0256 49.9812 56.9024 51.0156 62.6382C52.0499 68.374 52.9902 72.3702 53.8364 74.6269C54.4006 73.0284 55.529 69.5023 57.2215 64.0486C59.008 58.5949 60.6536 53.4233 62.158 48.5338C66.7654 32.831 71.655 18.7736 76.8266 6.36175C77.7669 4.38714 78.6601 2.97671 79.5064 2.13045C80.4467 1.19015 82.0452 0.720001 84.3019 0.720001C85.5243 0.720001 86.8407 6.07966 88.2511 16.799C89.6615 27.5183 90.8369 39.9302 91.7772 54.0345C94.316 73.9687 96.6197 84.8291 98.6883 86.6156C100.099 87.838 100.804 89.1544 100.804 90.5649C100.804 91.2231 100.24 91.9753 99.1115 92.8216C98.0772 93.5738 96.9018 93.9499 95.5854 93.9499Z" fill="white"/>
</svg>
